<?xml version="1.0" encoding="UTF-8" standalone="no"?><!-- Generator: Gravit.io --><svg xmlns="http://www.w3.org/2000/svg" xmlns:xlink="http://www.w3.org/1999/xlink" style="isolation:isolate" viewBox="0 0 512 512" width="512pt" height="512pt"><defs><clipPath id="_clipPath_xJUtMvZAKMMluX1l8eQJsUGp1tMFLuMn"><rect width="512" height="512"/></clipPath></defs><g clip-path="url(#_clipPath_xJUtMvZAKMMluX1l8eQJsUGp1tMFLuMn)"><g><path d=" M 465.815 372.583 C 454.283 397.435 448.787 408.548 434.087 430.435 C 413.512 461.094 384.383 499.333 348.432 499.604 C 316.487 499.861 308.244 479.178 264.834 479.557 C 221.479 479.76 212.45 499.956 180.451 499.59 C 144.5 499.319 116.995 464.857 96.38 434.293 C 38.744 348.475 32.666 247.904 68.307 194.396 C 93.483 156.496 133.333 134.229 170.773 134.229 C 208.89 134.229 232.903 154.696 264.36 154.696 C 295.033 154.696 313.631 134.175 357.745 134.175 C 391.097 134.175 426.372 151.948 451.548 182.552 C 369.115 226.707 382.488 341.762 465.815 372.596 L 465.815 372.583 Z " fill="rgb(66,165,245)"/><path d=" M 329.928 94.515 C 347.119 73.21 360.113 43.079 355.416 12.352 C 327.397 14.207 294.613 31.546 275.46 53.961 C 258.134 74.428 243.745 104.775 249.336 134.121 C 279.913 135.069 311.533 117.472 329.928 94.515 Z " fill="rgb(66,165,245)"/><path d=" M 420.443 207.567 C 302.22 337.214 193.933 215.391 48.111 308.03 C 53.187 348.949 68.821 393.306 96.38 434.293 C 116.955 464.857 144.5 499.333 180.438 499.644 C 212.437 499.956 221.479 479.76 264.834 479.557 C 308.244 479.232 316.501 499.861 348.432 499.59 C 384.383 499.319 413.526 461.094 434.087 430.422 C 448.787 408.548 454.283 397.435 465.815 372.583 C 395.334 346.526 375.192 260.235 420.443 207.567 Z " fill="rgb(30,136,229)"/></g></g></svg>