<?xml version="1.0" encoding="UTF-8" standalone="no"?><!-- Generator: Gravit.io --><svg xmlns="http://www.w3.org/2000/svg" xmlns:xlink="http://www.w3.org/1999/xlink" style="isolation:isolate" viewBox="0 0 512 512" width="512pt" height="512pt"><defs><clipPath id="_clipPath_RlRQKw682tnfMH6tIxtW5jstdrDOkglu"><rect width="512" height="512"/></clipPath></defs><g clip-path="url(#_clipPath_RlRQKw682tnfMH6tIxtW5jstdrDOkglu)"><g><path d=" M 10.277 0.464 C 4.283 1.808 0 6.418 0 14.266 L 0 500.417 C 0 506.115 2.851 509.969 7.31 511.365 L 302.326 254.493 L 10.277 0.464 Z " fill="rgb(77,182,172)"/><path d=" M 383.58 183.777 L 262.123 122.357 C 262.123 122.357 39.238 9.657 26.168 3.012 C 20.496 0.156 14.912 -0.599 10.277 0.451 L 302.37 254.48 L 383.58 183.777 Z " fill="rgb(220,231,117)"/><path d=" M 20.73 509.508 C 28.493 505.564 244.127 396.539 384.209 325.708 L 302.326 254.493 L 7.31 511.365 C 10.906 512.568 15.584 512.12 20.73 509.521 L 20.73 509.508 Z " fill="rgb(211,47,47)"/><path d=" M 502.873 244.083 C 491.236 238.578 384.443 184.225 384.443 184.225 L 383.58 183.764 L 302.326 254.493 L 384.209 325.708 C 449.03 292.956 497.683 268.347 502.025 266.144 C 515.84 259.141 514.525 249.589 502.873 244.083 Z " fill="rgb(251,192,45)"/></g></g></svg>