<?xml version="1.0" encoding="UTF-8" standalone="no"?><!-- Generator: Gravit.io --><svg xmlns="http://www.w3.org/2000/svg" xmlns:xlink="http://www.w3.org/1999/xlink" style="isolation:isolate" viewBox="0 0 256 256" width="256pt" height="256pt"><defs><clipPath id="_clipPath_G8mY1sQUNv7y0mQFWoPGEvNoQkPDA1IA"><rect width="256" height="256"/></clipPath></defs><g clip-path="url(#_clipPath_G8mY1sQUNv7y0mQFWoPGEvNoQkPDA1IA)"><path d=" M 106.614 52.369 C 201 -4.298 245.146 21.545 239.023 129.868 L 235.253 234.893 L 112.432 209.461 L 25 137 L 106.614 52.369 Z " fill="rgb(255,255,255)"/><path d=" M 239.023 129.21 L 255.43 101.417 C 256.09 100.037 256.18 98.452 255.68 97.006 L 223.18 3.914 C 222.195 1.086 219.227 -0.537 216.315 0.162 L 120.799 23.435 C 118.973 23.89 117.476 25.193 116.772 26.937 L 106.614 52.369 L 75.638 52.369 C 74.027 52.369 72.456 53.05 71.368 54.231 L 1.55 129.868 C -0.611 132.2 -0.499 135.835 1.801 138.031 L 75.027 207.85 C 76.092 208.897 77.547 209.461 79.025 209.461 L 112.409 209.461 L 122.591 234.893 C 123.341 236.768 125.011 238.118 127.001 238.459 L 228.591 255.914 C 231.652 256.444 234.588 254.469 235.253 251.434 L 255.866 157.004 C 256.187 155.54 255.926 154.009 255.139 152.734 L 239.023 129.21 Z  M 106.614 52.369 L 188.615 37.346 L 145.456 122.188 L 47.525 122.188 L 106.614 52.369 Z  M 112.432 209.461 L 47.525 145.461 L 145.456 145.461 L 196.364 222.075 L 112.432 209.461 Z  M 217.525 208.868 L 168.728 133.824 L 211.387 48.983 L 239.023 129.234 L 217.525 208.868 Z " fill="rgb(0,0,0)"/></g></svg>